<svg version="1.1" id="Layer_1" xmlns="http://www.w3.org/2000/svg" xmlns:xlink="http://www.w3.org/1999/xlink" x="0px" y="0px"
	 width="100%" viewBox="0 0 209 104" enable-background="new 0 0 209 104" xml:space="preserve">
<path fill="#FEFDFD" opacity="1.000000" stroke="none" 
	d="
M63.000000,1.000000 
	C111.965454,1.000000 160.930908,1.000000 209.948181,1.000000 
	C209.948181,35.607613 209.948181,70.215317 209.948181,104.911514 
	C140.441544,104.911514 70.882935,104.911514 1.162165,104.911514 
	C1.162165,70.333870 1.162165,35.667042 1.162165,1.000000 
	C19.755556,1.000000 38.409119,1.000000 57.506035,1.399775 
	C62.446037,10.507825 60.644573,19.813251 61.228115,29.586790 
	C54.782677,29.586790 49.039818,29.586790 43.505604,29.586790 
	C44.033279,35.624001 44.605343,41.337624 45.007553,47.063179 
	C45.275600,50.878906 45.135502,54.728531 45.521862,58.528023 
	C45.665596,59.941513 46.787823,61.255505 47.463848,62.614868 
	C48.110497,62.468998 48.757149,62.323128 49.403797,62.177258 
	C49.403797,52.824459 49.403797,43.471657 49.403797,33.954140 
	C53.799427,33.443619 57.214367,33.046997 61.238342,32.579643 
	C61.238342,34.819050 61.213867,36.613087 61.242180,38.406296 
	C61.486629,53.890312 61.652821,69.376503 62.063053,84.856194 
	C62.148891,88.095200 63.144997,91.310089 63.721638,94.536087 
	C64.170105,94.482971 64.618576,94.429848 65.067039,94.376732 
	C65.390259,91.256271 65.946594,88.139626 65.997643,85.014725 
	C66.264198,68.696465 66.462173,52.376362 66.533363,36.056248 
	C66.547119,32.904140 67.162712,31.287891 70.803528,30.921215 
	C83.666840,29.625698 83.652145,29.479832 82.222733,42.673607 
	C81.286255,51.317493 81.286705,51.313110 72.504707,50.405197 
	C72.338577,50.388023 72.121063,50.867882 72.180885,50.791241 
	C74.689056,54.331833 77.132668,57.781284 80.270981,62.211411 
	C83.474045,62.407093 85.185249,58.948532 86.006569,55.497482 
	C87.952995,47.318935 89.372681,39.014671 90.970619,30.754517 
	C91.058189,30.301859 90.937187,29.736061 90.731133,29.311275 
	C89.445976,26.661848 81.908745,24.518963 78.936203,25.476246 
	C75.123497,26.704096 71.151253,27.436539 67.167664,28.401829 
	C67.167664,22.313292 66.377960,17.012739 67.384781,12.078784 
	C68.438972,6.912687 67.766327,3.402644 63.000000,1.000000 
M127.545288,34.450500 
	C129.185242,37.478153 130.825211,40.505806 132.709244,43.984066 
	C135.827332,40.494663 134.831039,38.416878 132.560165,36.848759 
	C130.851532,35.668896 128.831116,34.940533 126.412727,33.341789 
	C130.201859,27.646179 135.845306,29.773632 141.397247,29.096622 
	C138.754105,45.982811 128.315369,56.942188 116.580162,67.076965 
	C117.474228,67.650558 117.648232,67.845512 117.748749,67.813042 
	C118.361298,67.615105 118.996552,67.435547 119.552711,67.122704 
	C129.821411,61.346611 137.872177,53.454140 142.910889,42.669567 
	C145.143768,37.890442 147.459702,33.150108 149.883347,28.088476 
	C146.884277,25.107233 144.306152,20.405544 138.595352,25.379080 
	C137.202423,26.592175 134.410141,26.198469 131.387787,26.683819 
	C132.716202,24.381411 133.447205,23.110535 134.182022,21.841866 
	C135.014572,20.404417 135.880630,18.985464 136.679779,17.529732 
	C139.881516,11.697397 137.928909,8.478256 131.089401,8.218774 
	C131.898438,22.190487 122.005447,31.157547 115.337418,41.826313 
	C117.483269,41.098869 119.225517,40.021484 120.863312,38.803638 
	C122.949417,37.252422 124.951042,35.587582 127.545288,34.450500 
M166.081924,25.814066 
	C166.631271,21.357182 167.202103,16.902813 167.724548,12.442778 
	C168.386032,6.796015 165.461746,4.290656 159.229187,5.307824 
	C159.939240,6.975135 161.233353,8.608708 161.224747,10.235382 
	C161.186142,17.524055 160.887756,24.818768 160.364014,32.088310 
	C160.296600,33.024147 158.492935,34.165726 157.272934,34.621803 
	C154.342056,35.717449 151.280060,36.462341 148.270966,37.348755 
	C148.312881,37.881393 148.354797,38.414028 148.396713,38.946667 
	C151.648193,39.277416 154.899673,39.608166 158.755356,40.000374 
	C155.753204,50.893764 148.793060,58.624996 140.321732,65.374397 
	C150.874191,62.250805 157.751724,55.147926 162.760071,45.145962 
	C166.741394,50.687656 170.287262,55.878326 174.137100,60.832787 
	C175.356171,62.401638 177.300613,64.226418 179.062485,64.397758 
	C184.031662,64.880997 189.078369,64.566643 194.991394,64.566643 
	C192.543365,63.162109 190.762131,62.334553 189.195541,61.208389 
	C181.538635,55.704086 173.873779,50.205372 166.385406,44.477623 
	C165.184387,43.558987 163.939026,41.128353 164.364365,40.043995 
	C164.917465,38.633980 166.984787,37.451870 168.641464,36.913628 
	C172.641281,35.614094 176.781128,34.745541 181.664780,33.498936 
	C176.151733,28.082447 170.844681,32.567753 165.787094,31.949791 
	C165.878662,29.987587 165.954712,28.357941 166.081924,25.814066 
M14.003826,79.571533 
	C12.932014,81.034538 11.860201,82.497536 10.788388,83.960541 
	C23.243139,77.404518 30.136843,66.723221 33.979889,53.960987 
	C38.177101,40.022636 37.311371,25.627098 37.024120,11.333187 
	C36.944603,7.376328 33.616573,5.777726 29.430990,6.655946 
	C34.334324,32.926640 33.811993,57.821865 14.003826,79.571533 
M18.242559,55.930691 
	C18.903236,46.585503 19.390581,37.223515 20.294264,27.901884 
	C20.780533,22.885952 17.910919,22.081411 14.176479,21.304153 
	C14.709721,24.927492 15.524789,27.996199 15.537331,31.068180 
	C15.562977,37.350300 14.923850,43.639153 15.057452,49.914612 
	C15.103460,52.075680 16.633560,54.205151 18.242559,55.930691 
M174.662125,71.641548 
	C178.242203,78.374939 182.815140,84.254120 188.867416,89.153671 
	C193.333542,81.570885 187.290771,72.602180 174.662125,71.641548 
M114.088326,81.589005 
	C111.843178,84.616074 108.858841,87.566757 113.017578,91.302559 
	C121.116753,86.786827 123.888565,78.479393 119.637962,71.479904 
	C117.928703,74.670143 116.234222,77.832779 114.088326,81.589005 
M142.135727,74.514893 
	C139.721405,72.978142 137.307083,71.441391 134.892761,69.904648 
	C134.502151,70.362457 134.111542,70.820267 133.720932,71.278076 
	C135.798035,75.689293 137.875137,80.100510 140.028320,84.673317 
	C144.556366,81.985115 144.603592,78.789398 142.135727,74.514893 
M164.792831,78.045090 
	C162.934814,73.570824 159.677673,70.618584 155.353088,68.827553 
	C154.856842,69.142456 154.360611,69.457352 153.864365,69.772247 
	C156.560211,74.710617 159.256058,79.648987 161.951920,84.587349 
	C162.496841,84.476646 163.041779,84.365952 163.586700,84.255249 
	C164.038239,82.438789 164.489761,80.622330 164.792831,78.045090 
M174.883026,16.364046 
	C177.781662,19.731806 180.680283,23.099567 183.971603,26.923573 
	C186.858841,19.889919 182.722656,15.525743 174.883026,16.364046 
M122.553543,42.911209 
	C121.819298,42.988697 121.085060,43.066181 119.931458,43.187923 
	C122.419456,46.333012 124.601555,49.091404 127.120171,52.275192 
	C129.894012,46.793507 127.166328,44.636959 122.553543,42.911209 
z"/>
<path fill="#443A3C" opacity="1.000000" stroke="none" 
	d="
M62.583336,1.000000 
	C67.766327,3.402644 68.438972,6.912687 67.384781,12.078784 
	C66.377960,17.012739 67.167664,22.313292 67.167664,28.401829 
	C71.151253,27.436539 75.123497,26.704096 78.936203,25.476246 
	C81.908745,24.518963 89.445976,26.661848 90.731133,29.311275 
	C90.937187,29.736061 91.058189,30.301859 90.970619,30.754517 
	C89.372681,39.014671 87.952995,47.318935 86.006569,55.497482 
	C85.185249,58.948532 83.474045,62.407093 80.270981,62.211411 
	C77.132668,57.781284 74.689056,54.331833 72.180885,50.791241 
	C72.121063,50.867882 72.338577,50.388023 72.504707,50.405197 
	C81.286705,51.313110 81.286255,51.317493 82.222733,42.673607 
	C83.652145,29.479832 83.666840,29.625698 70.803528,30.921215 
	C67.162712,31.287891 66.547119,32.904140 66.533363,36.056248 
	C66.462173,52.376362 66.264198,68.696465 65.997643,85.014725 
	C65.946594,88.139626 65.390259,91.256271 65.067039,94.376732 
	C64.618576,94.429848 64.170105,94.482971 63.721638,94.536087 
	C63.144997,91.310089 62.148891,88.095200 62.063053,84.856194 
	C61.652821,69.376503 61.486629,53.890312 61.242180,38.406296 
	C61.213867,36.613087 61.238342,34.819050 61.238342,32.579643 
	C57.214367,33.046997 53.799427,33.443619 49.403797,33.954140 
	C49.403797,43.471657 49.403797,52.824459 49.403797,62.177258 
	C48.757149,62.323128 48.110497,62.468998 47.463848,62.614868 
	C46.787823,61.255505 45.665596,59.941513 45.521862,58.528023 
	C45.135502,54.728531 45.275600,50.878906 45.007553,47.063179 
	C44.605343,41.337624 44.033279,35.624001 43.505604,29.586790 
	C49.039818,29.586790 54.782677,29.586790 61.228115,29.586790 
	C60.644573,19.813251 62.446037,10.507825 57.974693,1.399775 
	C59.388889,1.000000 60.777779,1.000000 62.583336,1.000000 
z"/>
<path fill="#41373A" opacity="1.000000" stroke="none" 
	d="
M166.056335,26.271179 
	C165.954712,28.357941 165.878662,29.987587 165.787094,31.949791 
	C170.844681,32.567753 176.151733,28.082447 181.664780,33.498936 
	C176.781128,34.745541 172.641281,35.614094 168.641464,36.913628 
	C166.984787,37.451870 164.917465,38.633980 164.364365,40.043995 
	C163.939026,41.128353 165.184387,43.558987 166.385406,44.477623 
	C173.873779,50.205372 181.538635,55.704086 189.195541,61.208389 
	C190.762131,62.334553 192.543365,63.162109 194.991394,64.566643 
	C189.078369,64.566643 184.031662,64.880997 179.062485,64.397758 
	C177.300613,64.226418 175.356171,62.401638 174.137100,60.832787 
	C170.287262,55.878326 166.741394,50.687656 162.760071,45.145962 
	C157.751724,55.147926 150.874191,62.250805 140.321732,65.374397 
	C148.793060,58.624996 155.753204,50.893764 158.755356,40.000374 
	C154.899673,39.608166 151.648193,39.277416 148.396713,38.946667 
	C148.354797,38.414028 148.312881,37.881393 148.270966,37.348755 
	C151.280060,36.462341 154.342056,35.717449 157.272934,34.621803 
	C158.492935,34.165726 160.296600,33.024147 160.364014,32.088310 
	C160.887756,24.818768 161.186142,17.524055 161.224747,10.235382 
	C161.233353,8.608708 159.939240,6.975135 159.229187,5.307824 
	C165.461746,4.290656 168.386032,6.796015 167.724548,12.442778 
	C167.202103,16.902813 166.631271,21.357182 166.056335,26.271179 
z"/>
<path fill="#41373A" opacity="1.000000" stroke="none" 
	d="
M126.989082,33.971725 
	C124.951042,35.587582 122.949417,37.252422 120.863312,38.803638 
	C119.225517,40.021484 117.483269,41.098869 115.337418,41.826313 
	C122.005447,31.157547 131.898438,22.190487 131.089401,8.218774 
	C137.928909,8.478256 139.881516,11.697397 136.679779,17.529732 
	C135.880630,18.985464 135.014572,20.404417 134.182022,21.841866 
	C133.447205,23.110535 132.716202,24.381411 131.387787,26.683819 
	C134.410141,26.198469 137.202423,26.592175 138.595352,25.379080 
	C144.306152,20.405544 146.884277,25.107233 149.883347,28.088476 
	C147.459702,33.150108 145.143768,37.890442 142.910889,42.669567 
	C137.872177,53.454140 129.821411,61.346611 119.552711,67.122704 
	C118.996552,67.435547 118.361298,67.615105 117.748749,67.813042 
	C117.648232,67.845512 117.474228,67.650558 116.580162,67.076965 
	C128.315369,56.942188 138.754105,45.982811 141.397247,29.096622 
	C135.845306,29.773632 130.201859,27.646179 126.707474,33.682255 
	C127.002228,34.022720 126.989082,33.971725 126.989082,33.971725 
z"/>
<path fill="#3F3538" opacity="1.000000" stroke="none" 
	d="
M14.231877,79.290413 
	C33.811993,57.821865 34.334324,32.926640 29.430990,6.655946 
	C33.616573,5.777726 36.944603,7.376328 37.024120,11.333187 
	C37.311371,25.627098 38.177101,40.022636 33.979889,53.960987 
	C30.136843,66.723221 23.243139,77.404518 10.788388,83.960541 
	C11.860201,82.497536 12.932014,81.034538 14.231877,79.290413 
z"/>
<path fill="#443A3D" opacity="1.000000" stroke="none" 
	d="
M17.864128,56.139874 
	C16.633560,54.205151 15.103460,52.075680 15.057452,49.914612 
	C14.923850,43.639153 15.562977,37.350300 15.537331,31.068180 
	C15.524789,27.996199 14.709721,24.927492 14.176479,21.304153 
	C17.910919,22.081411 20.780533,22.885952 20.294264,27.901884 
	C19.390581,37.223515 18.903236,46.585503 17.864128,56.139874 
z"/>
<path fill="#3F3538" opacity="1.000000" stroke="none" 
	d="
M174.777618,71.284370 
	C187.290771,72.602180 193.333542,81.570885 188.867416,89.153671 
	C182.815140,84.254120 178.242203,78.374939 174.777618,71.284370 
z"/>
<path fill="#43393C" opacity="1.000000" stroke="none" 
	d="
M114.314041,81.292213 
	C116.234222,77.832779 117.928703,74.670143 119.637962,71.479904 
	C123.888565,78.479393 121.116753,86.786827 113.017578,91.302559 
	C108.858841,87.566757 111.843178,84.616074 114.314041,81.292213 
z"/>
<path fill="#463C3F" opacity="1.000000" stroke="none" 
	d="
M142.356506,74.817078 
	C144.603592,78.789398 144.556366,81.985115 140.028320,84.673317 
	C137.875137,80.100510 135.798035,75.689293 133.720932,71.278076 
	C134.111542,70.820267 134.502151,70.362457 134.892761,69.904648 
	C137.307083,71.441391 139.721405,72.978142 142.356506,74.817078 
z"/>
<path fill="#41373A" opacity="1.000000" stroke="none" 
	d="
M164.867065,78.425476 
	C164.489761,80.622330 164.038239,82.438789 163.586700,84.255249 
	C163.041779,84.365952 162.496841,84.476646 161.951920,84.587349 
	C159.256058,79.648987 156.560211,74.710617 153.864365,69.772247 
	C154.360611,69.457352 154.856842,69.142456 155.353088,68.827553 
	C159.677673,70.618584 162.934814,73.570824 164.867065,78.425476 
z"/>
<path fill="#443A3D" opacity="1.000000" stroke="none" 
	d="
M174.996002,15.997818 
	C182.722656,15.525743 186.858841,19.889919 183.971603,26.923573 
	C180.680283,23.099567 177.781662,19.731806 174.996002,15.997818 
z"/>
<path fill="#463C3F" opacity="1.000000" stroke="none" 
	d="
M122.927032,42.962387 
	C127.166328,44.636959 129.894012,46.793507 127.120171,52.275192 
	C124.601555,49.091404 122.419456,46.333012 119.931458,43.187923 
	C121.085060,43.066181 121.819298,42.988697 122.927032,42.962387 
z"/>
<path fill="#483E41" opacity="1.000000" stroke="none" 
	d="
M126.975861,34.016953 
	C128.831116,34.940533 130.851532,35.668896 132.560165,36.848759 
	C134.831039,38.416878 135.827332,40.494663 132.709244,43.984066 
	C130.825211,40.505806 129.185242,37.478153 127.267181,34.211113 
	C126.989082,33.971725 127.002228,34.022720 126.975861,34.016953 
z"/>
</svg>