0
SECTION
2
HEADER
9
$INSUNITS
70
4
9
$ACADVER
1
AC1014
9
$HANDSEED
5
FFFF
0
ENDSEC
0
SECTION
2
TABLES
0
TABLE
2
VPORT
5
8
100
AcDbSymbolTable
0
ENDTAB
0
TABLE
2
LTYPE
5
5
100
AcDbSymbolTable
0
LTYPE
5
14
100
AcDbSymbolTableRecord
100
AcDbLinetypeTableRecord
2
BYBLOCK
70
0
0
LTYPE
5
15
100
AcDbSymbolTableRecord
100
AcDbLinetypeTableRecord
2
BYLAYER
70
0
0
LTYPE
5
16
100
AcDbSymbolTableRecord
100
AcDbLinetypeTableRecord
2
DASHED
70
0
3
Dashed __ __ __ __ __ __ __ __ __ __ __ __ __ _
72
65
73
2
40
0.75
49
0.5
74
0
49
-0.25
74
0
0
ENDTAB
0
TABLE
2
LAYER
5
2
100
AcDbSymbolTable
70
3
0
LAYER
5
50
100
AcDbSymbolTableRecord
100
AcDbLayerTableRecord
2
1
70
0
62
7
6
DASHED
0
LAYER
5
51
100
AcDbSymbolTableRecord
100
AcDbLayerTableRecord
2
0
70
0
62
7
6
CONTINUOUS
0
ENDTAB
0
TABLE
2
STYLE
5
3
100
AcDbSymbolTable
70
1
0
STYLE
5
11
100
AcDbSymbolTableRecord
100
AcDbTextStyleTableRecord
2
STANDARD
70
0
0
ENDTAB
0
TABLE
2
VIEW
5
6
100
AcDbSymbolTable
70
0
0
ENDTAB
0
TABLE
2
UCS
5
7
100
AcDbSymbolTable
70
0
0
ENDTAB
0
TABLE
2
APPID
5
9
100
AcDbSymbolTable
70
2
0
APPID
5
12
100
AcDbSymbolTableRecord
100
AcDbRegAppTableRecord
2
ACAD
70
0
0
ENDTAB
0
TABLE
2
DIMSTYLE
5
A
100
AcDbSymbolTable
70
1
0
ENDTAB
0
TABLE
2
BLOCK_RECORD
5
1
100
AcDbSymbolTable
70
1
0
BLOCK_RECORD
5
1F
100
AcDbSymbolTableRecord
100
AcDbBlockTableRecord
2
*MODEL_SPACE
0
BLOCK_RECORD
5
1B
100
AcDbSymbolTableRecord
100
AcDbBlockTableRecord
2
*PAPER_SPACE
0
ENDTAB
0
ENDSEC
0
SECTION
2
BLOCKS
0
BLOCK
5
20
100
AcDbEntity
100
AcDbBlockBegin
2
*MODEL_SPACE
0
ENDBLK
5
21
100
AcDbEntity
100
AcDbBlockEnd
0
BLOCK
5
1C
100
AcDbEntity
100
AcDbBlockBegin
2
*PAPER_SPACE
0
ENDBLK
5
1D
100
AcDbEntity
100
AcDbBlockEnd
0
ENDSEC
0
SECTION
2
ENTITIES
0
LINE
5
100
100
AcDbEntity
8
0
100
AcDbLine
10
603.73467860600749
20
225.91473513662135
30
0
11
603.73467860600749
21
185.91473513662135
31
0
0
LINE
5
101
100
AcDbEntity
8
0
100
AcDbLine
10
598.73467860600749
20
180.91473513662137
30
0
11
568.73467860600749
21
180.91473513662135
31
0
0
LINE
5
102
100
AcDbEntity
8
0
100
AcDbLine
10
563.73467860600749
20
185.91473513662129
30
0
11
563.73467860600749
21
225.91473513662135
31
0
0
LINE
5
103
100
AcDbEntity
8
1
100
AcDbLine
10
583.73467860600749
20
230.91473513662135
30
0
11
583.73467860600749
21
242.83019683864967
31
0
0
LINE
5
104
100
AcDbEntity
8
0
100
AcDbLine
10
568.73467860600749
20
230.91473513662129
30
0
11
575.89611372196225
21
230.91473513662135
31
0
0
LINE
5
105
100
AcDbEntity
8
0
100
AcDbLine
10
591.57324349005296
20
230.91473513662135
30
0
11
598.73467860600749
21
230.91473513662129
31
0
0
LINE
5
106
100
AcDbEntity
8
1
100
AcDbLine
10
575.89611372196225
20
230.91473513662135
30
0
11
583.73467860600749
21
230.91473513662135
31
0
0
LINE
5
107
100
AcDbEntity
8
1
100
AcDbLine
10
583.73467860600749
20
230.91473513662135
30
0
11
591.57324349005296
21
230.91473513662135
31
0
0
ARC
5
108
100
AcDbEntity
8
1
100
AcDbCircle
10
583.73467860600749
20
242.83019683864967
30
0
40
14.262584864388794
210
0
220
0
230
1
100
AcDbArc
50
236.66115410643607
51
303.33884589356461
0
ARC
5
109
100
AcDbEntity
8
0
100
AcDbCircle
10
583.73467860600749
20
242.83019683864967
30
0
40
14.262584864388835
210
0
220
0
230
1
100
AcDbArc
50
-56.661154106435376
51
236.66115410643607
0
CIRCLE
5
110
100
AcDbEntity
8
0
100
AcDbCircle
10
570.61436282567274
20
223.47658878102254
30
0
40
2
210
0
220
0
230
1
0
CIRCLE
5
111
100
AcDbEntity
8
0
100
AcDbCircle
10
596.85499438634236
20
223.47658878102254
30
0
40
2
210
0
220
0
230
1
0
LINE
5
112
100
AcDbEntity
8
1
100
AcDbLine
10
563.73467860600749
20
205.91473513662135
30
0
11
603.73467860600749
21
205.91473513662135
31
0
0
CIRCLE
5
113
100
AcDbEntity
8
0
100
AcDbCircle
10
570.61436282567274
20
188.35288149222012
30
0
40
2
210
0
220
0
230
1
0
CIRCLE
5
114
100
AcDbEntity
8
0
100
AcDbCircle
10
596.85499438634236
20
188.35288149222012
30
0
40
2
210
0
220
0
230
1
0
LWPOLYLINE
5
115
100
AcDbEntity
8
0
100
AcDbPolyline
90
8
70
1
43
0.0
10
568.60045143101388
20
176.87938069038933
10
573.60045143101388
20
176.87938069038935
42
-0.41421356237308665
10
578.60045143101388
20
171.87938069038935
10
578.60045143101377
20
151.87938069038933
42
-0.41421356237308876
10
573.60045143101388
20
146.87938069038935
10
568.60045143101388
20
146.87938069038927
42
-0.41421356237309087
10
563.60045143101377
20
151.87938069038927
10
563.60045143101388
20
171.87938069038935
42
-0.41421356237309087
0
LINE
5
116
100
AcDbEntity
8
1
100
AcDbLine
10
571.10045143101388
20
176.87938069038933
30
0
11
571.10045143101388
21
146.87938069038933
31
0
0
LINE
5
117
100
AcDbEntity
8
1
100
AcDbLine
10
563.60045143101388
20
161.87938069038933
30
0
11
578.60045143101388
21
161.87938069038933
31
0
0
CIRCLE
5
118
100
AcDbEntity
8
0
100
AcDbCircle
10
571.10045143101388
20
171.96787948231477
30
0
40
2
210
0
220
0
230
1
0
CIRCLE
5
119
100
AcDbEntity
8
0
100
AcDbCircle
10
571.10045143101388
20
151.79088189846385
30
0
40
2
210
0
220
0
230
1
0
CIRCLE
5
120
100
AcDbEntity
8
0
100
AcDbCircle
10
596.10045143101388
20
171.96787948231477
30
0
40
2
210
0
220
0
230
1
0
LWPOLYLINE
5
121
100
AcDbEntity
8
0
100
AcDbPolyline
90
8
70
1
43
0.0
10
588.60045143101388
20
151.87938069038933
10
588.60045143101388
20
171.87938069038927
42
-0.41421356237310125
10
593.60045143101388
20
176.87938069038927
10
598.60045143101388
20
176.87938069038935
42
-0.41421356237308876
10
603.60045143101388
20
171.87938069038933
10
603.60045143101388
20
151.87938069038935
42
-0.41421356237310125
10
598.60045143101377
20
146.87938069038935
10
593.60045143101388
20
146.87938069038935
42
-0.41421356237309298
0
CIRCLE
5
122
100
AcDbEntity
8
0
100
AcDbCircle
10
596.10045143101388
20
151.79088189846385
30
0
40
2
210
0
220
0
230
1
0
LINE
5
123
100
AcDbEntity
8
1
100
AcDbLine
10
596.10045143101388
20
176.87938069038933
30
0
11
596.10045143101388
21
146.87938069038933
31
0
0
LINE
5
124
100
AcDbEntity
8
1
100
AcDbLine
10
588.60045143101388
20
161.87938069038933
30
0
11
603.60045143101388
21
161.87938069038933
31
0
0
LWPOLYLINE
5
125
100
AcDbEntity
8
0
100
AcDbPolyline
90
8
70
1
43
0.0
10
568.60045143101388
20
141.87938069038933
10
573.60045143101388
20
141.87938069038935
42
-0.41421356237308665
10
578.60045143101388
20
136.87938069038935
10
578.60045143101388
20
116.87938069038933
42
-0.41421356237308876
10
573.60045143101388
20
111.87938069038933
10
568.60045143101388
20
111.87938069038935
42
-0.41421356237309298
10
563.60045143101388
20
116.87938069038933
10
563.60045143101388
20
136.87938069038935
42
-0.41421356237309087
0
CIRCLE
5
126
100
AcDbEntity
8
0
100
AcDbCircle
10
596.10045143101388
20
116.79088189846385
30
0
40
2
210
0
220
0
230
1
0
LINE
5
127
100
AcDbEntity
8
1
100
AcDbLine
10
571.10045143101388
20
141.87938069038933
30
0
11
571.10045143101388
21
111.87938069038933
31
0
0
LWPOLYLINE
5
128
100
AcDbEntity
8
0
100
AcDbPolyline
90
8
70
1
43
0.0
10
588.60045143101388
20
116.87938069038933
10
588.60045143101388
20
136.87938069038933
42
-0.41421356237309298
10
593.60045143101388
20
141.87938069038927
10
598.60045143101377
20
141.87938069038933
42
-0.41421356237310125
10
603.60045143101388
20
136.87938069038927
10
603.60045143101388
20
116.87938069038933
42
-0.41421356237308876
10
598.60045143101388
20
111.87938069038933
10
593.60045143101388
20
111.87938069038935
42
-0.41421356237309298
0
CIRCLE
5
129
100
AcDbEntity
8
0
100
AcDbCircle
10
571.10045143101388
20
136.96787948231477
30
0
40
2
210
0
220
0
230
1
0
CIRCLE
5
130
100
AcDbEntity
8
0
100
AcDbCircle
10
571.10045143101388
20
116.79088189846385
30
0
40
2
210
0
220
0
230
1
0
LINE
5
131
100
AcDbEntity
8
1
100
AcDbLine
10
588.60045143101388
20
126.87938069038933
30
0
11
603.60045143101388
21
126.87938069038933
31
0
0
LINE
5
132
100
AcDbEntity
8
1
100
AcDbLine
10
596.10045143101388
20
141.87938069038933
30
0
11
596.10045143101388
21
111.87938069038933
31
0
0
CIRCLE
5
133
100
AcDbEntity
8
0
100
AcDbCircle
10
596.10045143101388
20
136.96787948231477
30
0
40
2
210
0
220
0
230
1
0
LINE
5
134
100
AcDbEntity
8
1
100
AcDbLine
10
563.60045143101388
20
126.87938069038933
30
0
11
578.60045143101388
21
126.87938069038933
31
0
0
LINE
5
135
100
AcDbEntity
8
0
100
AcDbLine
10
565.15624436030566
20
94.187955060780112
30
0
11
556.528125125153
21
94.187955060780212
31
0
0
LINE
5
136
100
AcDbEntity
8
1
100
AcDbLine
10
545.15624436030555
20
94.187955060780268
30
0
11
545.15624436030555
21
90.187955060780283
31
0
0
LINE
5
137
100
AcDbEntity
8
0
100
AcDbLine
10
556.46387628204297
20
90.187955060780013
30
0
11
565.15624436030566
21
90.187955060780141
31
0
0
LINE
5
138
100
AcDbEntity
8
0
100
AcDbLine
10
565.15624436030566
20
90.187955060780141
30
0
11
565.15624436030566
21
94.187955060780112
31
0
0
LINE
5
139
100
AcDbEntity
8
1
100
AcDbLine
10
565.15624436030566
20
94.187955060780112
30
0
11
545.15624436030555
21
90.187955060780283
31
0
0
LINE
5
140
100
AcDbEntity
8
1
100
AcDbLine
10
545.15624436030555
20
94.187955060780268
30
0
11
565.15624436030566
21
90.187955060780141
31
0
0
LINE
5
141
100
AcDbEntity
8
1
100
AcDbLine
10
556.528125125153
20
94.187955060780212
30
0
11
545.15624436030555
21
94.187955060780268
31
0
0
LINE
5
142
100
AcDbEntity
8
1
100
AcDbLine
10
545.15624436030555
20
90.187955060780283
30
0
11
556.46387628204297
21
90.187955060780013
31
0
0
ELLIPSE
5
143
100
AcDbEntity
8
1
100
AcDbEllipse
10
565.15606213256547
20
92.174973575228023
30
0
11
9.9999918718992014
21
0.012749978423468466
31
0.0
40
0.40000000000000002
41
2.6110573730279407
42
3.1351598039519413
0
ELLIPSE
5
144
100
AcDbEntity
8
1
100
AcDbEllipse
10
565.15606213256547
20
92.174973575228037
30
0
11
9.9999918718992049
21
0.012749978423413879
31
0.0
40
0.39999999999999952
41
3.135159803951959
42
3.6582581047294473
0
LINE
5
145
100
AcDbEntity
8
1
100
AcDbLine
10
575.15605369254456
20
92.187955060780155
30
0
11
567.15605369254467
21
92.187955060780155
31
0
0
LINE
5
146
100
AcDbEntity
8
0
100
AcDbLine
10
567.15605369254456
20
96.096302405696406
30
0
11
567.15605369254467
21
106.18795506078015
31
0
0
LINE
5
147
100
AcDbEntity
8
0
100
AcDbLine
10
569.15605369254456
20
108.18795506078015
30
0
11
573.15605369254467
21
108.18795506078015
31
0
0
LINE
5
148
100
AcDbEntity
8
0
100
AcDbLine
10
575.15605369254456
20
106.18795506078015
30
0
11
575.15605369254456
21
92.187955060780155
31
0
0
LINE
5
149
100
AcDbEntity
8
1
100
AcDbLine
10
567.15605369254467
20
92.187955060780155
30
0
11
567.15605369254456
21
96.096302405696406
31
0
0
LINE
5
150
100
AcDbEntity
8
1
100
AcDbLine
10
567.15605369254467
20
92.187955060780155
30
0
11
575.15605369254456
21
92.187955060780155
31
0
0
ELLIPSE
5
151
100
AcDbEntity
8
0
100
AcDbEllipse
10
565.15606213256547
20
92.174973575228023
30
0
11
9.9999918718992014
21
0.012749978423439947
31
0.0
40
0.40000000000000002
41
3.6582581047294376
42
6.2832431840141716
0
ELLIPSE
5
152
100
AcDbEntity
8
0
100
AcDbEllipse
10
565.15606213256547
20
92.174973575228023
30
0
11
9.9999918718991303
21
0.012749978423478579
31
0.0
40
0.40000000000000641
41
1.3689291285358913
42
2.6110573730279407
0
ELLIPSE
5
153
100
AcDbEntity
8
1
100
AcDbEllipse
10
565.15606213256547
20
92.174973575228037
30
0
11
10.001735738188772
21
-0.075075542771846582
31
0.0
40
0.40141073023590823
41
0.02193034377862646
42
1.3724886987323246
0
LINE
5
154
100
AcDbEntity
8
1
100
AcDbLine
10
571.2211460533232
20
108.18795506078015
30
0
11
571.22114605332308
21
95.329358332548537
31
0
0
CIRCLE
5
155
100
AcDbEntity
8
0
100
AcDbCircle
10
571.2211460533232
20
101.7586566966643
30
0
40
2.0000000000000084
210
0
220
0
230
1
0
ELLIPSE
5
156
100
AcDbEntity
8
1
100
AcDbEllipse
10
602.31329507944974
20
92.174973575228037
30
0
11
10.001735738188772
21
0.075075542771864207
31
0.0
40
0.40141073023590823
41
1.7691039548574707
42
3.1196623098111598
0
LINE
5
157
100
AcDbEntity
8
1
100
AcDbLine
10
602.31311285170966
20
94.187955060780112
30
0
11
622.31311285170955
21
90.187955060780212
31
0
0
LINE
5
158
100
AcDbEntity
8
0
100
AcDbLine
10
598.35346901137837
20
107.82895766273556
30
0
11
594.35346901137825
21
107.82895766273556
31
0
0
LINE
5
159
100
AcDbEntity
8
1
100
AcDbLine
10
592.31330351947054
20
92.187955060780155
30
0
11
600.31330351947054
21
92.187955060780155
31
0
0
LINE
5
160
100
AcDbEntity
8
1
100
AcDbLine
10
622.31311285170955
20
90.187955060780212
30
0
11
611.00548092997224
21
90.187955060780013
31
0
0
LINE
5
161
100
AcDbEntity
8
1
100
AcDbLine
10
622.31311285170955
20
94.187955060780268
30
0
11
602.31311285170955
21
90.187955060780155
31
0
0
LINE
5
162
100
AcDbEntity
8
1
100
AcDbLine
10
596.24821115869202
20
108.18795506078013
30
0
11
596.24821115869202
21
95.329358332548452
31
0
0
LINE
5
163
100
AcDbEntity
8
0
100
AcDbLine
10
602.31311285170955
20
90.187955060780155
30
0
11
602.31311285170966
21
94.187955060780112
31
0
0
ELLIPSE
5
164
100
AcDbEntity
8
0
100
AcDbEllipse
10
602.31329507944974
20
92.174973575228023
30
0
11
9.9999918718991303
21
-0.012749978423478612
31
0.0
40
0.40000000000000641
41
0.53053528056185595
42
1.7726635250539116
0
LINE
5
165
100
AcDbEntity
8
0
100
AcDbLine
10
600.31330351947065
20
96.096302405696349
30
0
11
600.35345196600633
21
105.82070047209221
31
0
0
CIRCLE
5
166
100
AcDbEntity
8
0
100
AcDbCircle
10
596.24821115869202
20
101.7586566966643
30
0
40
2.0000000000000084
210
0
220
0
230
1
0
ELLIPSE
5
167
100
AcDbEntity
8
0
100
AcDbEllipse
10
602.31329507944974
20
92.174973575228023
30
0
11
9.9999918718992014
21
-0.01274997842342214
31
0.0
40
0.40000000000000002
41
3.1415347767552078
42
5.7665198560399276
0
LINE
5
168
100
AcDbEntity
8
1
100
AcDbLine
10
610.9412320868621
20
94.187955060780212
30
0
11
622.31311285170955
21
94.187955060780268
31
0
0
LINE
5
169
100
AcDbEntity
8
0
100
AcDbLine
10
602.31311285170966
20
94.187955060780112
30
0
11
610.9412320868621
21
94.187955060780212
31
0
0
LINE
5
170
100
AcDbEntity
8
0
100
AcDbLine
10
592.35347767747135
20
105.83484530207521
30
0
11
592.31330351947054
21
92.187955060780155
31
0
0
LINE
5
171
100
AcDbEntity
8
1
100
AcDbLine
10
602.35346865141958
20
92.181484336585072
30
0
11
600.31330351947054
21
92.187955060780155
31
0
0
LINE
5
172
100
AcDbEntity
8
1
100
AcDbLine
10
600.31330351947054
20
92.187955060780155
30
0
11
592.31330351947054
21
92.187955060780155
31
0
0
LINE
5
173
100
AcDbEntity
8
0
100
AcDbLine
10
611.00548092997224
20
90.187955060780013
30
0
11
602.31311285170955
21
90.187955060780155
31
0
0
ELLIPSE
5
174
100
AcDbEntity
8
1
100
AcDbEllipse
10
602.31329507944974
20
92.174973575228023
30
0
11
9.9999918718992014
21
-0.012749978423486193
31
0.0
40
0.40000000000000002
41
0.0064328496378303068
42
0.53053528056185595
0
LINE
5
175
100
AcDbEntity
8
1
100
AcDbLine
10
600.31330351947054
20
92.187955060780155
30
0
11
600.31330351947065
21
96.096302405696349
31
0
0
ELLIPSE
5
176
100
AcDbEntity
8
1
100
AcDbEllipse
10
602.31329507944974
20
92.174973575228037
30
0
11
9.9999918718992049
21
-0.012749978423396129
31
0.0
40
0.39999999999999952
41
-0.51666545113966089
42
0.0064328496378054378
0
LINE
5
177
100
AcDbEntity
8
1
100
AcDbLine
10
622.31311285170955
20
94.187955060780268
30
0
11
622.31311285170955
21
90.187955060780283
31
0
0
ARC
5
178
100
AcDbEntity
8
0
100
AcDbCircle
10
568.73467860600749
20
225.91473513662129
30
0
40
5
210
0
220
-0
230
1
100
AcDbArc
50
90
51
180
0
ARC
5
179
100
AcDbEntity
8
0
100
AcDbCircle
10
598.73467860600749
20
225.91473513662129
30
0
40
5
210
0
220
-0
230
1
100
AcDbArc
50
0
51
90
0
ARC
5
180
100
AcDbEntity
8
0
100
AcDbCircle
10
568.73467860600749
20
185.91473513662137
30
0
40
5
210
0
220
0
230
1
100
AcDbArc
50
180
51
270
0
ARC
5
181
100
AcDbEntity
8
0
100
AcDbCircle
10
598.73467860600749
20
185.91473513662137
30
0
40
5
210
-0
220
0
230
1
100
AcDbArc
50
270
51
360
0
ARC
5
182
100
AcDbEntity
8
0
100
AcDbCircle
10
594.35346901137825
20
105.82895766273558
30
0
40
1.9999999999999929
210
0
220
-0
230
1
100
AcDbArc
50
90
51
179.83133131365599
0
ARC
5
183
100
AcDbEntity
8
0
100
AcDbCircle
10
598.35346901137837
20
105.82895766273558
30
0
40
2.0000000000000187
210
-0
220
0
230
1
100
AcDbArc
50
-0.2365517592686405
51
90
0
ARC
5
184
100
AcDbEntity
8
0
100
AcDbCircle
10
573.15605369254467
20
106.18795506078015
30
0
40
1.9999999999999574
210
0
220
-0
230
1
100
AcDbArc
50
0
51
90
0
ARC
5
185
100
AcDbEntity
8
0
100
AcDbCircle
10
569.15605369254456
20
106.18795506078015
30
0
40
1.9999999999999929
210
0
220
-0
230
1
100
AcDbArc
50
90
51
180
0
LINE
5
186
100
AcDbEntity
8
1
100
AcDbLine
10
567.15605369254467
20
92.187955060780155
30
0
11
549.086717870999
21
92.18795506078024
31
0
0
CIRCLE
5
187
100
AcDbEntity
8
0
100
AcDbCircle
10
577.35941741262104
20
246.96630395735747
30
0
40
1.9999999999999938
210
0
220
0
230
1
0
CIRCLE
5
188
100
AcDbEntity
8
0
100
AcDbCircle
10
590.10993979939417
20
246.96630395735747
30
0
40
1.9999999999999938
210
0
220
0
230
1
0
LWPOLYLINE
5
189
100
AcDbEntity
8
0
100
AcDbPolyline
90
4
70
1
43
0.0
10
578.3594174275222
20
237.96630382324702
10
588.35941757653382
20
237.96630382324702
10
586.35941754673149
20
233.96630376364232
10
581.35941747222569
20
233.96630376364237
0
LINE
5
190
100
AcDbEntity
8
1
100
AcDbLine
10
583.73467860600749
20
230.91473513662135
30
0
11
583.73467860600749
21
180.91473513662137
31
0
0
LWPOLYLINE
5
191
100
AcDbEntity
8
0
100
AcDbPolyline
90
4
70
1
43
0.0
10
399.45884789877681
20
176.93386031989664
10
519.45884789877687
20
176.93386031989664
10
519.45884789877687
20
166.93386031989664
10
399.45884789877681
20
166.93386031989664
0
LINE
5
192
100
AcDbEntity
8
1
100
AcDbLine
10
519.45884789877687
20
171.93386031989664
30
0
11
399.45884789877681
21
171.93386031989664
31
0
0
LINE
5
193
100
AcDbEntity
8
1
100
AcDbLine
10
459.45884789877681
20
176.93386031989664
30
0
11
459.45884789877681
21
166.93386031989664
31
0
0
CIRCLE
5
194
100
AcDbEntity
8
0
100
AcDbCircle
10
434.45884789877681
20
171.93386031989664
30
0
40
2.0000000000000018
210
0
220
0
230
1
0
CIRCLE
5
195
100
AcDbEntity
8
0
100
AcDbCircle
10
484.45884789877681
20
171.93386031989664
30
0
40
2.0000000000000018
210
0
220
0
230
1
0
LWPOLYLINE
5
196
100
AcDbEntity
8
0
100
AcDbPolyline
90
8
70
1
43
0.0
10
619.44020048622633
20
231.21685545684892
10
654.44020048622633
20
231.21685545684895
42
-0.4142135623730992
10
656.94020048622633
20
228.71685545684892
10
656.94020048622633
20
223.71685545684892
42
-0.4142135623730992
10
654.44020048622633
20
221.21685545684886
10
619.44020048622633
20
221.21685545684895
42
-0.41421356237310752
10
616.94020048622633
20
223.71685545684892
10
616.94020048622633
20
228.71685545684892
42
-0.41421356237310752
0
LINE
5
197
100
AcDbEntity
8
1
100
AcDbLine
10
636.94020048622633
20
231.21685545684892
30
0
11
636.94020048622633
21
221.21685545684892
31
0
0
LINE
5
198
100
AcDbEntity
8
1
100
AcDbLine
10
616.94020048622633
20
226.21685545684892
30
0
11
656.94020048622633
21
226.21685545684892
31
0
0
CIRCLE
5
199
100
AcDbEntity
8
0
100
AcDbCircle
10
622.74273897479497
20
226.21685545684892
30
0
40
2.0000000000000147
210
0
220
0
230
1
0
CIRCLE
5
200
100
AcDbEntity
8
0
100
AcDbCircle
10
651.13766199765769
20
226.21685545684892
30
0
40
2.0000000000000147
210
0
220
0
230
1
0
LINE
5
201
100
AcDbEntity
8
1
100
AcDbLine
10
636.94020048622633
20
216.21685545684892
30
0
11
636.94020048622633
21
206.21685545684892
31
0
0
LWPOLYLINE
5
202
100
AcDbEntity
8
0
100
AcDbPolyline
90
8
70
1
43
0.0
10
616.94020048622633
20
208.71685545684892
10
616.94020048622633
20
213.71685545684892
42
-0.41421356237310752
10
619.44020048622633
20
216.21685545684892
10
654.44020048622633
20
216.21685545684895
42
-0.4142135623730992
10
656.94020048622633
20
213.71685545684892
10
656.94020048622633
20
208.71685545684892
42
-0.4142135623730992
10
654.44020048622633
20
206.21685545684886
10
619.44020048622633
20
206.21685545684895
42
-0.41421356237310752
0
LINE
5
203
100
AcDbEntity
8
1
100
AcDbLine
10
616.94020048622633
20
211.21685545684892
30
0
11
656.94020048622633
21
211.21685545684892
31
0
0
CIRCLE
5
204
100
AcDbEntity
8
0
100
AcDbCircle
10
651.13766199765769
20
211.21685545684892
30
0
40
2.0000000000000147
210
0
220
0
230
1
0
CIRCLE
5
205
100
AcDbEntity
8
0
100
AcDbCircle
10
622.74273897479497
20
211.21685545684892
30
0
40
2.0000000000000147
210
0
220
0
230
1
0
CIRCLE
5
206
100
AcDbEntity
8
0
100
AcDbCircle
10
653.1419621402822
20
160.96070722425605
30
0
40
22.499999999999957
210
0
220
0
230
1
0
CIRCLE
5
207
100
AcDbEntity
8
0
100
AcDbCircle
10
653.1419621402822
20
160.96070722425605
30
0
40
5.9999999999999512
210
0
220
0
230
1
0
CIRCLE
5
208
100
AcDbEntity
8
0
100
AcDbCircle
10
653.1419621402822
20
110.96070722425605
30
0
40
22.499999999999957
210
0
220
0
230
1
0
CIRCLE
5
209
100
AcDbEntity
8
0
100
AcDbCircle
10
653.1419621402822
20
110.96070722425605
30
0
40
5.9999999999999512
210
0
220
0
230
1
0
CIRCLE
5
210
100
AcDbEntity
8
0
100
AcDbCircle
10
703.1419621402822
20
110.96070722425605
30
0
40
22.499999999999957
210
0
220
0
230
1
0
CIRCLE
5
211
100
AcDbEntity
8
0
100
AcDbCircle
10
703.1419621402822
20
160.96070722425605
30
0
40
5.9999999999999512
210
0
220
0
230
1
0
CIRCLE
5
212
100
AcDbEntity
8
0
100
AcDbCircle
10
703.1419621402822
20
160.96070722425605
30
0
40
22.499999999999957
210
0
220
0
230
1
0
CIRCLE
5
213
100
AcDbEntity
8
0
100
AcDbCircle
10
703.1419621402822
20
110.96070722425605
30
0
40
5.9999999999999512
210
0
220
0
230
1
0
CIRCLE
5
214
100
AcDbEntity
8
0
100
AcDbCircle
10
753.1419621402822
20
160.96070722425605
30
0
40
22.499999999999957
210
0
220
0
230
1
0
CIRCLE
5
215
100
AcDbEntity
8
0
100
AcDbCircle
10
753.1419621402822
20
110.96070722425605
30
0
40
22.499999999999957
210
0
220
0
230
1
0
CIRCLE
5
216
100
AcDbEntity
8
0
100
AcDbCircle
10
753.1419621402822
20
160.96070722425605
30
0
40
5.9999999999999512
210
0
220
0
230
1
0
CIRCLE
5
217
100
AcDbEntity
8
0
100
AcDbCircle
10
753.1419621402822
20
110.96070722425605
30
0
40
5.9999999999999512
210
0
220
0
230
1
0
ENDSEC
0
SECTION
2
OBJECTS
0
DICTIONARY
5
C
100
AcDbDictionary
3
ACAD_GROUP
350
D
3
ACAD_MLINESTYLE
350
17
0
DICTIONARY
5
D
100
AcDbDictionary
0
DICTIONARY
5
1A
330
C
100
AcDbDictionary
0
DICTIONARY
5
17
100
AcDbDictionary
0
ENDSEC
0
EOF
